# xmcd
#
# Track frame offsets:
#	150
#	19090
#	37477
#	56152
#	77335
#	100102
#	117375
#	139502
#	157615
#	175022
#	191147
#	208162
#	222400
#	240647
#	252750
#	271792
#
# Disc length: 3967 seconds
#
# Revision: 3
# Processed by: cddbd v1.5.2PL0 Copyright (c) Steve Scherf et al.
# Submitted via: EZCDAudioConverter 6.0.3.1
#
DISCID=db0f7d10
DTITLE=K T Oslin - RCA Country Legends
DYEAR=2002
DGENRE=Country
TTITLE0=80's Ladies
TTITLE1=Do Ya
TTITLE2=I'll Always Come Back
TTITLE3=Money
TTITLE4=Hold Me
TTITLE5=Hey Bobby
TTITLE6=This Woman
TTITLE7=Didn't Expect It To Go Down This Way
TTITLE8=Come Next Monday
TTITLE9=Mary And Willie
TTITLE10=You Call Everybody Darling
TTITLE11=Truly Blue
TTITLE12=Pathway Of Teardrops
TTITLE13=Tear Time
TTITLE14=Old Pictures
TTITLE15=Down In The Valley
EXTD=
EXTT0=
EXTT1=
EXTT2=
EXTT3=
EXTT4=
EXTT5=
EXTT6=
EXTT7=
EXTT8=
EXTT9=
EXTT10=
EXTT11=
EXTT12=
EXTT13=
EXTT14=
EXTT15=
PLAYORDER=
